<svg aria-hidden="true" style="position: absolute; width: 0; height: 0; overflow: hidden;" version="1.1" xmlns="http://www.w3.org/2000/svg" xmlns:xlink="http://www.w3.org/1999/xlink">
<defs>
<symbol  id="icon-logo" viewBox="8 8 13 10">
<path d="M12.896 10.688c-0.205 0.038-0.48 0.096-0.602 0.134-0.122 0.045-0.448 0.083-0.723 0.090-0.538 0.013-0.493-0.013-1.587 0.774-0.166 0.122-0.294 0.141-1.171 0.166-1.152 0.032-1.325 0.096-1.562 0.563-0.301 0.582-0.314 1.030-0.115 2.931 0.038 0.346 0.256 0.858 0.435 1.030 0.365 0.339 0.474 0.352 2.989 0.358 2.566 0.013 3.002 0.058 3.699 0.397 0.352 0.166 0.416 0.173 1.549 0.198 1.197 0.026 5.805-0.186 6.842-0.314 0.672-0.083 1.018-0.243 1.376-0.64 0.269-0.294 0.301-0.314 0.602-0.314 0.198 0 0.333-0.032 0.352-0.083 0.013-0.045 0.019-0.448 0.006-0.896-0.026-0.998-0.115-1.229-0.685-1.798-0.749-0.755-1.293-0.922-3.277-0.998-1.414-0.058-1.632-0.090-1.632-0.23 0-0.102-0.198-0.218-0.384-0.218-0.077 0-0.307-0.115-0.518-0.262-0.538-0.365-1.376-0.755-1.786-0.832-0.48-0.083-3.334-0.128-3.808-0.058zM16.806 11.053c0.422 0.109 1.357 0.589 1.734 0.89l0.166 0.134-2.266 0.045c-1.248 0.026-2.464 0.070-2.714 0.102l-0.448 0.051-0.218-0.23c-0.198-0.218-0.582-0.826-0.582-0.922 0-0.019 0.211-0.070 0.467-0.115 0.25-0.038 0.506-0.083 0.557-0.096s0.717-0.013 1.472-0.006c1.088 0.019 1.472 0.051 1.83 0.147zM12.032 11.136c0.038 0.070 0.051 0.128 0.038 0.128-0.019 0-0.064-0.058-0.102-0.128s-0.051-0.128-0.038-0.128c0.019 0 0.064 0.058 0.102 0.128zM11.802 11.232c0.128 0.192 0.128 0.224 0.013 0.224-0.045 0-0.16 0.058-0.256 0.134-0.128 0.102-0.269 0.134-0.582 0.147-0.23 0-0.416-0.006-0.416-0.019s0.077-0.128 0.166-0.25c0.307-0.397 0.883-0.531 1.075-0.237zM12.211 11.488c-0.019 0.019-0.058-0.013-0.077-0.077-0.038-0.090-0.032-0.096 0.032-0.038 0.045 0.045 0.064 0.096 0.045 0.115zM10.246 11.77c-0.147 0.282-0.224 0.326-0.634 0.333l-0.301 0.006 0.307 0.058c0.205 0.045 0.346 0.038 0.435-0.013 0.070-0.038 0.147-0.051 0.16-0.038 0.019 0.019 0.102-0.038 0.186-0.122s0.218-0.154 0.301-0.147c0.115 0 0.096 0.019-0.077 0.077-0.122 0.045-0.211 0.102-0.205 0.134 0.013 0.032-0.013 0.077-0.058 0.109-0.064 0.038-0.064 0.070 0 0.147 0.102 0.128 0.147 0.128-0.544-0.026-0.883-0.192-1.69-0.154-1.69 0.083 0 0.051-0.058 0.141-0.128 0.205-0.173 0.154-0.166 0.173 0.102 0.32 0.122 0.064 0.275 0.198 0.333 0.301 0.102 0.179 0.346 0.243 0.429 0.122 0.019-0.032-0.006-0.186-0.064-0.339-0.122-0.358-0.122-0.371 0.064-0.371 0.083 0 0.186-0.051 0.224-0.115 0.051-0.083 0.058-0.051 0.026 0.141-0.032 0.173-0.019 0.237 0.026 0.205 0.045-0.026 0.077 0.051 0.096 0.198 0.019 0.218 0.026 0.205 0.032-0.077 0.013-0.243 0.032-0.294 0.090-0.237 0.045 0.045 0.25 0.077 0.467 0.077l0.384 0.006-0.211 0.115-0.211 0.109 0.166 0.077c0.096 0.045 0.23 0.064 0.301 0.038 0.077-0.019 0.115-0.013 0.096 0.019s0.41 0.154 0.954 0.269c0.538 0.122 0.986 0.237 0.986 0.269 0 0.102-0.736 0.058-1.184-0.070-0.55-0.16-1.446-0.224-2.067-0.147l-0.467 0.064-0.090-0.179c-0.134-0.25-0.467-0.506-0.659-0.506-0.096 0-0.243 0.058-0.333 0.128-0.115 0.083-0.179 0.102-0.237 0.051-0.064-0.051-0.083-0.032-0.083 0.070 0 0.090 0.026 0.128 0.070 0.096 0.064-0.038-0.038 0.211-0.122 0.294-0.090 0.096 0.051-0.781 0.166-0.998 0.198-0.39 0.282-0.429 0.928-0.461 0.326-0.019 0.538-0.051 0.48-0.070-0.064-0.019 0.16-0.038 0.486-0.038 0.576 0 0.614-0.006 0.877-0.205 0.154-0.115 0.288-0.205 0.301-0.211 0.006 0-0.038 0.109-0.109 0.25zM11.501 11.949c0.064 0.064 0.090 0.096 0.051 0.070s-0.141-0.077-0.23-0.109c-0.096-0.038-0.115-0.064-0.051-0.064 0.058-0.006 0.16 0.045 0.23 0.102zM12.269 11.981c-0.019 0.051-0.038 0.032-0.038-0.038-0.006-0.070 0.013-0.109 0.032-0.083 0.019 0.019 0.026 0.077 0.006 0.122zM11.494 12.192c0.147 0.109 0.243 0.122 0.179 0.019-0.026-0.045-0.019-0.051 0.032-0.026 0.038 0.026 0.051 0.077 0.032 0.115-0.019 0.032 0.058 0.16 0.173 0.282 0.166 0.173 0.186 0.218 0.096 0.218-0.058 0-0.096-0.026-0.077-0.051 0.045-0.070-0.416-0.506-0.614-0.582-0.090-0.038-0.109-0.064-0.045-0.064 0.051-0.006 0.154 0.038 0.224 0.090zM19.68 12.32c0.742 0.064 1.971 0.512 2.323 0.851 0.192 0.179 0.563 0.429 0.467 0.314-0.077-0.102-0.058-0.109 0.301-0.109 0.262 0 0.403-0.032 0.461-0.096 0.070-0.083 0.064-0.090-0.013-0.064-0.051 0.019-0.262-0.064-0.474-0.192-0.205-0.128-0.627-0.307-0.934-0.403-0.55-0.166-0.704-0.269-0.416-0.269 0.442 0.006 1.382 0.147 1.728 0.262 0.422 0.141 1.101 0.602 1.037 0.704-0.026 0.032 0 0.058 0.051 0.058 0.115 0 0.186 0.237 0.083 0.275-0.038 0.013-0.013 0.019 0.064 0.006 0.134-0.026 0.282 0.179 0.282 0.384 0 0.090-0.557 0.218-1.549 0.358-0.275 0.038-0.582 0.115-0.698 0.173-0.154 0.077-0.288 0.090-0.685 0.045-0.269-0.032-1.069-0.058-1.773-0.058-1.235-0.006-1.306-0.013-2.042-0.211-0.422-0.115-0.838-0.205-0.928-0.205-0.083 0-0.141-0.019-0.122-0.038 0.026-0.019 0.416 0.013 0.877 0.064 1.958 0.243 5.837 0.307 5.498 0.096-0.045-0.032-0.173-0.058-0.282-0.058-0.166 0-0.218-0.038-0.314-0.25-0.192-0.435-0.358-0.544-0.864-0.57-0.25-0.013-0.493-0.006-0.55 0.013-0.090 0.032-0.083 0.058 0.045 0.173 0.141 0.122 0.134 0.115-0.058-0.006-0.166-0.109-0.198-0.16-0.128-0.198 0.051-0.038-0.045-0.058-0.269-0.064-0.32-0.013-0.333-0.013-0.128-0.058 0.211-0.045 0.211-0.045 0.038-0.058-0.096 0-0.461-0.109-0.8-0.237-0.653-0.25-1.728-0.538-1.952-0.531-0.070 0 0.301 0.154 0.826 0.339 0.531 0.186 1.062 0.384 1.184 0.442 0.224 0.102 0.218 0.102-0.384 0.083-0.55-0.019-0.71-0.058-1.728-0.41l-1.12-0.39 0.96 0.051-0.416-0.090c-0.23-0.051-0.493-0.090-0.589-0.096-0.096 0-0.192-0.032-0.211-0.070-0.045-0.064 2.24-0.038 3.2 0.038zM15.552 12.384c0.915 0.134 1.67 0.326 1.472 0.371-0.141 0.032-0.134 0.032 0.032 0.026 0.109-0.006 0.224 0.006 0.256 0.032 0.038 0.019 0.16 0.058 0.275 0.083s0.39 0.115 0.608 0.205c0.531 0.218 0.666 0.237 1.498 0.243 0.39 0 0.698 0.019 0.678 0.045-0.013 0.032-0.243 0.051-0.499 0.051-0.403 0-0.467 0.013-0.435 0.096 0.026 0.077-0.051 0.064-0.339-0.064-0.211-0.083-0.32-0.115-0.25-0.064 0.512 0.39 0.486 0.448-0.173 0.39-0.781-0.064-1.331-0.166-1.632-0.307-0.288-0.134-0.55-0.48-0.518-0.672 0.032-0.186-0.896-0.39-1.869-0.41-0.576-0.006-0.717-0.026-0.512-0.058 0.474-0.077 0.768-0.070 1.408 0.032zM12.653 12.506c-0.019 0.051-0.006 0.109 0.038 0.128s0 0.019-0.102-0.006c-0.134-0.026-0.166-0.013-0.141 0.058 0.058 0.147-0.23 0.122-0.358-0.032-0.064-0.077-0.115-0.16-0.122-0.192 0-0.026 0.16-0.045 0.358-0.045 0.288 0 0.352 0.019 0.326 0.090zM13.779 12.461c-0.045 0.013-0.134 0.013-0.192 0-0.064-0.019-0.026-0.032 0.077-0.032 0.109 0 0.154 0.013 0.115 0.032zM11.488 12.544c0.026 0.038-0.070 0.064-0.25 0.064-0.16 0-0.307-0.032-0.326-0.064-0.026-0.038 0.070-0.064 0.25-0.064 0.16 0 0.307 0.026 0.326 0.064zM12.992 12.544c0.083 0.058 0.083 0.064 0 0.064-0.051 0-0.141-0.032-0.192-0.064-0.083-0.058-0.083-0.064 0-0.064 0.051 0 0.141 0.032 0.192 0.064zM13.395 12.525c-0.045 0.013-0.122 0.013-0.16 0-0.045-0.019-0.013-0.032 0.077-0.032s0.122 0.013 0.083 0.032zM21.69 12.653c0.378 0.102 1.19 0.486 1.254 0.595 0.026 0.038-0.083 0.064-0.294 0.064-0.275 0-0.378-0.038-0.634-0.224-0.173-0.128-0.493-0.314-0.717-0.416-0.333-0.154-0.365-0.179-0.179-0.154 0.122 0.019 0.378 0.083 0.57 0.134zM14.592 12.73c0 0.070-0.038 0.141-0.077 0.154-0.045 0.019 0.026 0.038 0.16 0.038 0.525 0.013 1.082 0.486 1.318 1.114 0.070 0.205 0.134 0.403 0.128 0.448 0 0.045-0.045-0.026-0.090-0.147s-0.090-0.205-0.090-0.173c-0.006 0.026-0.128-0.038-0.275-0.147-0.371-0.269-0.474-0.256-0.525 0.083-0.026 0.154-0.026 0.326 0 0.384 0.019 0.064 0.006 0.198-0.038 0.307-0.070 0.16-0.070 0.205 0 0.25 0.051 0.032 0.115 0.038 0.141 0.026 0.026-0.019 0.032 0.019 0.006 0.077-0.026 0.070 0.122-0.013 0.358-0.192 0.218-0.166 0.416-0.294 0.435-0.275s-0.083 0.115-0.23 0.218c-0.301 0.211-0.326 0.275-0.102 0.275 0.102 0 0.16-0.038 0.16-0.096 0-0.051 0.026-0.096 0.058-0.096s0.070 0.045 0.096 0.096c0.051 0.141 0.154 0.115 0.186-0.051 0.026-0.128 0.026-0.122 0.038 0.026 0.006 0.166 0 0.173-0.506 0.218-0.41 0.038-0.525 0.070-0.582 0.166-0.032 0.064-0.109 0.122-0.173 0.122-0.109 0-0.41 0.403-0.621 0.819l-0.102 0.211 0.275 0.122c0.397 0.179 0.685 0.16 0.698-0.058 0-0.064 0.013-0.070 0.038-0.026 0.070 0.179 0.346 0.064 0.378-0.16 0.006-0.038-0.006-0.077-0.032-0.077s-0.134-0.083-0.237-0.186l-0.186-0.186 0.006 0.269c0.013 0.154 0 0.192-0.019 0.083-0.013-0.096-0.058-0.16-0.090-0.134-0.032 0.019-0.141 0-0.243-0.045-0.173-0.077-0.179-0.090-0.090-0.23 0.134-0.205 0.275-0.186 0.282 0.026 0.006 0.147 0.013 0.154 0.038 0.038 0.013-0.077 0-0.198-0.038-0.262-0.051-0.096-0.045-0.134 0.026-0.166 0.064-0.019 0.134 0.045 0.218 0.205 0.070 0.128 0.211 0.339 0.32 0.461 0.186 0.218 0.192 0.224 0.294 0.096 0.058-0.070 0.141-0.218 0.192-0.32 0.064-0.128 0.090-0.154 0.096-0.077 0 0.16-0.147 0.435-0.333 0.595-0.25 0.23-0.544 0.346-0.883 0.346-0.723 0-1.19-0.499-1.312-1.395-0.026-0.198-0.019-0.333 0.019-0.333 0.128 0 0.397 0.32 0.397 0.474 0 0.237 0.090 0.25 0.41 0.058 0.493-0.301 0.378-0.474-0.39-0.563-0.371-0.038-0.403-0.058-0.403-0.198 0-0.358 0.403-0.954 0.774-1.152 0.39-0.198 1.21-0.038 1.395 0.275 0.058 0.096 0.064 0.096 0.070 0.013 0-0.179-0.371-0.691-0.646-0.87-0.173-0.115-0.39-0.186-0.627-0.218-0.333-0.038-0.371-0.026-0.518 0.134-0.090 0.090-0.115 0.109-0.064 0.038l0.096-0.134-0.154 0.128c-0.077 0.070-0.218 0.25-0.307 0.397-0.173 0.301-0.435 0.429-0.768 0.365-0.314-0.058-0.256-0.23 0.109-0.32l0.288-0.070-0.416-0.070c-0.237-0.045-0.608-0.096-0.832-0.122l-0.416-0.051 0.608-0.032c0.57-0.032 0.595-0.038 0.435-0.122-0.442-0.23-0.198-0.397 0.634-0.442 0.634-0.032 0.666-0.013 0.525 0.262-0.064 0.128-0.058 0.122 0.109-0.026 0.352-0.32 0.602-0.397 0.602-0.192zM11.443 13.229c-0.064 0.013-0.166 0.013-0.224 0-0.064-0.019-0.013-0.032 0.109-0.032s0.173 0.013 0.115 0.032zM8.23 13.645c0.122 0.147 0.122 0.147-0.006 0.051-0.070-0.058-0.211-0.109-0.32-0.115-0.192-0.019-0.192-0.019-0.058 0.096 0.115 0.102 0.122 0.141 0.051 0.307l-0.077 0.186-0.045-0.269c-0.038-0.243-0.058-0.262-0.147-0.192-0.077 0.058-0.070 0.038 0.013-0.064 0.16-0.186 0.429-0.186 0.589 0zM9.28 13.632c0 0.032-0.070 0.064-0.154 0.064s-0.166 0.045-0.192 0.096c-0.045 0.128-0.147 0.122-0.224-0.026-0.058-0.102-0.045-0.109 0.090-0.083 0.096 0.013 0.16 0 0.16-0.045 0-0.038 0.070-0.070 0.16-0.070s0.16 0.026 0.16 0.064zM12.397 13.837c-0.019 0.051-0.038 0.032-0.038-0.038-0.006-0.070 0.013-0.109 0.032-0.083 0.019 0.019 0.026 0.077 0.006 0.122zM16.531 13.741c-0.045 0.013-0.134 0.013-0.192 0-0.064-0.019-0.026-0.032 0.077-0.032 0.109 0 0.154 0.013 0.115 0.032zM8.506 14.24c0 0.032-0.026 0.019-0.058-0.032s-0.058-0.141-0.058-0.192c0-0.102 0.109 0.102 0.115 0.224zM16.608 14.080c-0.102 0.045-0.109 0.058-0.019 0.058 0.262 0.013 0.755 0.154 0.755 0.211 0 0.070-0.762 0.038-0.973-0.045-0.16-0.064-0.141-0.211 0.032-0.243 0.243-0.045 0.339-0.038 0.205 0.019zM7.68 14.541c0-0.128 0.109-0.083 0.147 0.051 0.058 0.218 0.192 0.154 0.147-0.064-0.019-0.122-0.013-0.186 0.026-0.16 0.038 0.019 0.064 0.077 0.064 0.122 0 0.173 0.141 0.23 0.326 0.128 0.109-0.051 0.186-0.064 0.186-0.026 0 0.032-0.038 0.064-0.077 0.064-0.045 0-0.141 0.051-0.211 0.102-0.122 0.090-0.122 0.102-0.013 0.16 0.058 0.038 0.096 0.096 0.070 0.134s-0.064 0.032-0.096-0.019c-0.045-0.070-0.058-0.064-0.058 0.026 0 0.064 0.077 0.186 0.166 0.282 0.090 0.090 0.147 0.179 0.128 0.198-0.026 0.019-0.083-0.019-0.134-0.090-0.090-0.115-0.090-0.109-0.096 0.070s-0.013 0.179-0.064 0.051c-0.032-0.083-0.070-0.211-0.083-0.288-0.045-0.262-0.115-0.365-0.224-0.326-0.090 0.026-0.096 0.019-0.013-0.038 0.102-0.070 0.115-0.064-0.211-0.256-0.134-0.083-0.262-0.134-0.282-0.109-0.026 0.019-0.006 0.038 0.038 0.038s0.070 0.045 0.051 0.090c-0.026 0.064-0.006 0.083 0.045 0.064s0.109-0.006 0.134 0.032c0.019 0.038 0.013 0.070-0.019 0.070s-0.058 0.198-0.051 0.448c0.006 0.371 0.019 0.429 0.090 0.339 0.070-0.096 0.077-0.096 0.077-0.006 0 0.058-0.026 0.128-0.064 0.147-0.032 0.019-0.064 0.070-0.064 0.102 0 0.147 0.128-0.032 0.192-0.269 0.038-0.141 0.090-0.301 0.109-0.358 0.032-0.077 0.019-0.090-0.045-0.051-0.058 0.038-0.070 0.026-0.032-0.026 0.090-0.147 0.166 0.026 0.096 0.211-0.096 0.256-0.083 0.486 0.032 0.486 0.058 0 0.115 0.045 0.134 0.096 0.026 0.051 0.070 0.077 0.115 0.058 0.038-0.019 0.013 0.013-0.058 0.070-0.422 0.339-0.864-0.339-0.864-1.338 0-0.186 0.019-0.358 0.045-0.378 0.019-0.026 0.109 0.019 0.192 0.096s0.147 0.102 0.147 0.064zM15.514 14.374c0.122 0.045 0.128 0.154 0.026 0.378-0.090 0.205-0.307 0.218-0.307 0.013s0.070-0.429 0.128-0.429c0.032 0 0.096 0.019 0.154 0.038zM9.453 14.554c-0.019 0.051-0.006 0.109 0.038 0.122s0.058 0.045 0.038 0.070c-0.019 0.019-0.090-0.026-0.16-0.102-0.064-0.077-0.083-0.115-0.038-0.090 0.038 0.026 0.077 0.013 0.077-0.019 0-0.038 0.019-0.070 0.038-0.070s0.026 0.038 0.006 0.090zM12.454 14.88c-0.038 0.25-0.032 0.288 0.064 0.288 0.064 0 0.096 0.019 0.070 0.038-0.019 0.019-0.416-0.045-0.877-0.141s-0.8-0.198-0.755-0.218c0.045-0.026 0.384-0.064 0.755-0.090 0.371-0.019 0.685-0.070 0.691-0.102 0.058-0.166 0.090-0.032 0.051 0.224zM16.173 14.733c-0.019 0.051-0.038 0.032-0.038-0.038-0.006-0.070 0.013-0.109 0.032-0.083 0.019 0.019 0.026 0.077 0.006 0.122zM23.763 15.085c-0.045 0.013-0.122 0.013-0.16 0-0.045-0.019-0.013-0.032 0.077-0.032s0.122 0.013 0.083 0.032zM23.315 15.149c-0.045 0.013-0.134 0.013-0.192 0-0.064-0.019-0.026-0.032 0.077-0.032 0.109 0 0.154 0.013 0.115 0.032zM9.862 15.283c-0.045 0.013-0.115-0.006-0.147-0.038-0.051-0.051-0.026-0.058 0.083-0.032 0.083 0.026 0.115 0.051 0.064 0.070zM22.899 15.2c-0.038 0.045-2.746 0.045-2.79 0.006-0.019-0.026 0.608-0.038 1.395-0.038s1.414 0.013 1.395 0.032zM12.845 15.27c-0.019 0.019-0.077 0.026-0.122 0.006-0.051-0.019-0.032-0.038 0.038-0.038 0.070-0.006 0.109 0.013 0.083 0.032zM10.285 15.334c-0.019 0.019-0.077 0.026-0.122 0.006-0.051-0.019-0.032-0.038 0.038-0.038 0.070-0.006 0.109 0.013 0.083 0.032zM10.669 15.398c-0.019 0.019-0.077 0.026-0.122 0.006-0.051-0.019-0.032-0.038 0.038-0.038 0.070-0.006 0.109 0.013 0.083 0.032zM11.053 15.462c-0.019 0.019-0.077 0.026-0.122 0.006-0.051-0.019-0.032-0.038 0.038-0.038 0.070-0.006 0.109 0.013 0.083 0.032zM16.301 15.949c-0.013 0.115-0.026 0.038-0.026-0.173s0.013-0.307 0.026-0.211c0.013 0.096 0.013 0.269 0 0.384zM11.437 15.526c-0.019 0.019-0.077 0.026-0.122 0.006-0.051-0.019-0.032-0.038 0.038-0.038 0.070-0.006 0.109 0.013 0.083 0.032zM24.474 15.61l0.179 0.122-0.57 0.134c-0.986 0.23-1.939 0.275-4.205 0.198-2.701-0.083-3.168-0.147-1.51-0.198 0.685-0.019 1.338-0.064 1.44-0.090 0.173-0.051 0.186-0.045 0.102 0.058-0.051 0.058-0.070 0.122-0.051 0.141s0.723 0.038 1.562 0.038c1.414 0 2.061-0.051 2.662-0.211 0.23-0.064 0.326-0.186 0.141-0.186-0.051 0-0.096-0.032-0.096-0.064 0-0.096 0.141-0.077 0.346 0.058zM11.821 15.59c-0.019 0.019-0.077 0.026-0.122 0.006-0.051-0.019-0.032-0.038 0.038-0.038 0.070-0.006 0.109 0.013 0.083 0.032zM12.205 15.654c-0.019 0.019-0.077 0.026-0.122 0.006-0.051-0.019-0.032-0.038 0.038-0.038 0.070-0.006 0.109 0.013 0.083 0.032zM15.584 15.872c0.090 0.032 0.147 0.090 0.128 0.128-0.064 0.102-0.186 0.077-0.275-0.064-0.090-0.147-0.083-0.154 0.147-0.064zM11.52 16.090c1.536 0.173 1.44 0.205-0.678 0.256l-1.293 0.026 0.141-0.218c0.166-0.256 0.109-0.256 1.83-0.064zM23.040 16.352c-0.115 0.141-0.531 0.243-0.794 0.198-0.333-0.064-0.326-0.134 0.013-0.115 0.211 0.013 0.275 0 0.211-0.045-0.070-0.045-0.032-0.070 0.16-0.090 0.518-0.051 0.499-0.051 0.41 0.051zM21.056 16.384c0 0.032 0.064 0.064 0.147 0.064 0.077 0.006 0.256 0.109 0.397 0.23l0.256 0.23-1.952-0.038c-2.285-0.038-2.976-0.115-1.766-0.186 0.589-0.038 0.794-0.070 0.89-0.16 0.090-0.077 0.282-0.122 0.742-0.147 1.030-0.064 1.286-0.058 1.286 0.006z"></path>
<path d="M9.715 12.013c0.038 0.013 0.115 0.013 0.16 0 0.038-0.019 0.006-0.032-0.083-0.032s-0.122 0.013-0.077 0.032z"></path>
<path d="M9.043 12.077c0.058 0.013 0.147 0.013 0.192 0 0.038-0.019-0.006-0.032-0.115-0.032-0.102 0-0.141 0.013-0.077 0.032z"></path>
<path d="M23.283 12.813c-0.083 0.218 0.518 0.954 0.774 0.947 0.058-0.006 0.013-0.045-0.090-0.090-0.237-0.102-0.55-0.499-0.602-0.768-0.032-0.147-0.058-0.173-0.083-0.090z"></path>
<path d="M17.050 13.216c0 0.186 0.019 0.224 0.128 0.23 0.077 0.006 0.237 0.019 0.365 0.026 0.134 0.006 0.282 0.032 0.339 0.051 0.083 0.032 0.096 0.013 0.064-0.134-0.045-0.179-0.173-0.307-0.205-0.205-0.013 0.032-0.064 0.038-0.115 0.019-0.083-0.032-0.122 0.051-0.096 0.192 0.006 0.032-0.019 0.038-0.058 0.013-0.032-0.019-0.045-0.109-0.026-0.198 0.032-0.122 0.013-0.154-0.090-0.154-0.070 0-0.166-0.013-0.218-0.032-0.058-0.026-0.083 0.032-0.090 0.192z"></path>
<path d="M18.010 13.325c-0.096 0.154 0.384 0.339 0.781 0.294 0.179-0.019 0.166-0.026-0.166-0.198-0.32-0.16-0.352-0.166-0.397-0.064-0.038 0.109-0.045 0.109-0.045 0-0.006-0.122-0.102-0.147-0.173-0.032z"></path>
<path d="M13.216 13.632l-0.192 0.051 0.211 0.006c0.109 0 0.205-0.026 0.205-0.058 0-0.038-0.006-0.058-0.013-0.058-0.013 0.006-0.102 0.032-0.211 0.058z"></path>
<path d="M14.746 13.926c0.026 0.096 0.064 0.25 0.083 0.352 0.070 0.346 0.211 0.141 0.211-0.314 0-0.179-0.019-0.205-0.166-0.205s-0.16 0.019-0.128 0.166z"></path>
<path d="M14.387 13.939c-0.090 0.058-0.237 0.192-0.314 0.294l-0.147 0.186 0.346 0.314c0.186 0.166 0.397 0.326 0.467 0.346 0.128 0.038 0.237-0.064 0.237-0.23-0.006-0.077-0.019-0.070-0.070 0.013-0.109 0.192-0.166 0.128-0.147-0.16 0.026-0.275-0.083-0.877-0.154-0.877-0.026 0-0.122 0.051-0.218 0.115z"></path>
<path d="M13.798 14.694c-0.102 0.262-0.058 0.301 0.474 0.384l0.288 0.045-0.333-0.269c-0.186-0.141-0.346-0.262-0.365-0.262-0.013 0-0.045 0.045-0.064 0.102z"></path>
<path d="M14.31 15.885c-0.237 0.16-0.288 0.211-0.198 0.243 0.058 0.019 0.102 0.064 0.096 0.096s0.013 0.070 0.045 0.077c0.026 0.013 0.128-0.128 0.218-0.301 0.096-0.179 0.166-0.32 0.16-0.32 0 0-0.147 0.096-0.32 0.205z"></path>
<path d="M7.725 15.91c-0.051 0.051 0.006 0.154 0.090 0.154 0.032 0 0.058-0.045 0.058-0.096 0-0.096-0.077-0.128-0.147-0.058z"></path>
<path d="M5.677 18.733c-0.077 0.077-0.051 1.011 0.032 1.094 0.051 0.051 0.339 0.077 0.864 0.077 0.742 0 0.787-0.006 0.787-0.128s-0.045-0.128-0.736-0.128h-0.736v-0.768h0.736c0.614 0 0.736-0.019 0.736-0.096 0-0.083-0.134-0.096-0.819-0.096-0.454 0-0.845 0.019-0.864 0.045z"></path>
<path d="M7.917 18.726c-0.026 0.026-0.045 0.301-0.045 0.614 0 0.461 0.019 0.563 0.096 0.563 0.070 0 0.096-0.070 0.096-0.256v-0.256h1.28v0.256c0 0.186 0.026 0.256 0.096 0.256 0.083 0 0.096-0.096 0.083-0.595l-0.019-0.589-0.774-0.019c-0.422-0.006-0.787 0.006-0.813 0.026zM9.331 19.021c0.019 0.102-0.045 0.115-0.621 0.115-0.499 0-0.646-0.019-0.646-0.083 0-0.16 0.083-0.179 0.666-0.16 0.493 0.019 0.582 0.038 0.602 0.128z"></path>
<path d="M10.048 19.296c0 0.563 0.006 0.608 0.128 0.608 0.109 0 0.128-0.045 0.128-0.256v-0.256h0.954l0.077 0.256c0.058 0.186 0.115 0.256 0.205 0.256 0.122 0 0.128-0.102 0.006-0.403-0.019-0.058 0.019-0.102 0.102-0.128 0.115-0.032 0.134-0.077 0.115-0.346l-0.019-0.307-1.696-0.038v0.614zM11.539 18.97c0.058 0.147-0.013 0.166-0.64 0.166-0.454 0-0.595-0.019-0.595-0.083 0-0.154 0.077-0.173 0.646-0.173 0.416 0 0.563 0.019 0.589 0.090z"></path>
<path d="M13.312 19.296c0 0.499 0.019 0.608 0.096 0.608 0.070 0 0.096-0.070 0.096-0.256v-0.256h0.947l0.102 0.256c0.070 0.179 0.141 0.256 0.224 0.256 0.122 0 0.122-0.013 0.038-0.25s-0.077-0.25 0.038-0.282c0.109-0.032 0.128-0.083 0.109-0.346l-0.019-0.307-1.632-0.038v0.614zM14.771 19.021c0.019 0.102-0.045 0.115-0.621 0.115-0.499 0-0.646-0.019-0.646-0.083 0-0.16 0.083-0.179 0.666-0.16 0.493 0.019 0.582 0.038 0.602 0.128z"></path>
<path d="M15.552 18.81c-0.032 0.070-0.064 0.288-0.064 0.486 0 0.602 0.006 0.608 0.928 0.608 0.755 0 0.8-0.006 0.8-0.128s-0.045-0.128-0.736-0.128c-0.691 0-0.736-0.006-0.736-0.128s0.045-0.128 0.672-0.128c0.627 0 0.672-0.006 0.672-0.128s-0.045-0.128-0.678-0.128c-0.608 0-0.672-0.013-0.653-0.115 0.019-0.096 0.115-0.109 0.742-0.128 0.576-0.013 0.717-0.032 0.717-0.109s-0.141-0.096-0.8-0.096c-0.723 0-0.8 0.013-0.864 0.122z"></path>
<path d="M17.728 19.296c0 0.563 0.013 0.608 0.128 0.608 0.109 0 0.122-0.051 0.141-0.442l0.019-0.442 0.602 0.442c0.819 0.602 0.838 0.595 0.838-0.166 0-0.563-0.006-0.608-0.128-0.608-0.115 0-0.128 0.045-0.128 0.448v0.448l-0.595-0.448c-0.333-0.243-0.659-0.448-0.736-0.448-0.134 0-0.141 0.026-0.141 0.608z"></path>
<path d="M19.968 18.784c0 0.077 0.083 0.096 0.352 0.096h0.352v0.512c0 0.467 0.013 0.512 0.128 0.512 0.109 0 0.122-0.051 0.141-0.499l0.019-0.493 0.371-0.019c0.269-0.013 0.365-0.045 0.365-0.109 0-0.077-0.154-0.096-0.864-0.096-0.723 0-0.864 0.013-0.864 0.096z"></path>
<path d="M22.253 18.733c-0.026 0.019-0.045 0.294-0.045 0.608 0 0.512 0.013 0.57 0.115 0.55 0.077-0.013 0.115-0.090 0.128-0.262l0.019-0.237h1.21v0.256c0 0.211 0.019 0.256 0.128 0.256 0.115 0 0.128-0.045 0.128-0.531 0-0.326-0.032-0.563-0.077-0.608-0.083-0.083-1.53-0.115-1.606-0.032zM23.667 19.021c0.019 0.102-0.038 0.115-0.589 0.115-0.576 0-0.614-0.006-0.614-0.128 0-0.128 0.032-0.134 0.589-0.115 0.506 0.019 0.595 0.038 0.614 0.128z"></path>
<path d="M24.448 19.258c0 0.461 0.019 0.576 0.102 0.608 0.058 0.019 0.429 0.038 0.832 0.038 0.685 0 0.73-0.006 0.73-0.128s-0.045-0.128-0.736-0.128h-0.736v-0.48c0-0.384-0.019-0.48-0.096-0.48s-0.096 0.109-0.096 0.57z"></path>
<path d="M11.738 20.89c-0.070 0.186 0.006 0.326 0.186 0.346 0.243 0.032 0.205 0.218-0.051 0.282-0.186 0.038-0.186 0.038 0.032 0.032 0.192-0.013 0.224-0.038 0.243-0.192s-0.006-0.179-0.179-0.211c-0.256-0.051-0.237-0.23 0.032-0.288l0.192-0.045-0.211-0.006c-0.128-0.006-0.224 0.032-0.243 0.083z"></path>
<path d="M13.12 21.184v0.384l0.243-0.006c0.192-0.013 0.205-0.019 0.064-0.038-0.218-0.032-0.262-0.275-0.051-0.275 0.070 0 0.128-0.032 0.128-0.064 0-0.038-0.058-0.064-0.128-0.064-0.211 0-0.166-0.243 0.051-0.275 0.141-0.019 0.128-0.026-0.064-0.038l-0.243-0.006v0.384z"></path>
<path d="M14.534 21.197c0.006 0.224 0.026 0.326 0.038 0.224 0.019-0.109 0.064-0.173 0.141-0.173 0.064 0 0.141 0.077 0.173 0.173 0.058 0.154 0.064 0.128 0.064-0.205l-0.006-0.384-0.205-0.019-0.211-0.019 0.006 0.403zM14.912 21.024c0 0.128-0.032 0.16-0.16 0.16-0.115 0-0.16-0.032-0.16-0.115 0-0.064 0.019-0.141 0.045-0.16 0.019-0.026 0.096-0.045 0.16-0.045 0.083 0 0.115 0.045 0.115 0.16z"></path>
<path d="M15.942 20.845c0 0.038 0.026 0.218 0.070 0.397 0.115 0.512 0.314 0.397 0.397-0.224 0.026-0.211 0.019-0.198-0.070 0.083-0.058 0.186-0.122 0.339-0.147 0.339s-0.090-0.154-0.141-0.339c-0.058-0.179-0.102-0.301-0.109-0.256z"></path>
<path d="M17.408 21.184c0 0.211 0.026 0.384 0.064 0.384s0.064-0.173 0.064-0.384c0-0.211-0.026-0.384-0.064-0.384s-0.064 0.173-0.064 0.384z"></path>
<path d="M18.605 20.845c-0.026 0.019-0.045 0.192-0.045 0.384v0.339l0.211-0.006c0.192-0.013 0.198-0.013 0.026-0.038s-0.179-0.045-0.16-0.326c0.019-0.256 0.045-0.301 0.179-0.339l0.16-0.045-0.166-0.006c-0.090-0.006-0.186 0.013-0.205 0.038z"></path>
<path d="M19.904 21.184v0.384l0.211-0.006c0.192-0.013 0.192-0.013 0.032-0.038-0.243-0.038-0.256-0.275-0.019-0.275 0.090 0 0.16-0.032 0.16-0.064 0-0.038-0.077-0.064-0.166-0.064-0.218 0-0.186-0.198 0.038-0.262 0.147-0.038 0.141-0.045-0.045-0.051l-0.211-0.006v0.384z"></path>
</symbol>
<symbol id="icon-heart" viewBox="0 0 32 32">
<path stroke-linejoin="round" stroke-linecap="butt" stroke-miterlimit="4" stroke-width="2.6667" d="M25.404 4.551c-0.889-0.373-1.849-0.569-2.809-0.569s-1.92 0.196-2.809 0.569c-0.889 0.373-1.707 0.907-2.382 1.582l-1.404 1.422-1.422-1.422c-1.369-1.369-3.236-2.151-5.191-2.151-1.938 0-3.804 0.782-5.191 2.151-1.369 1.387-2.133 3.253-2.133 5.191s0.764 3.804 2.133 5.191l1.422 1.404 10.382 10.382 10.364-10.382 1.422-1.404c0.676-0.693 1.209-1.493 1.582-2.382s0.551-1.849 0.551-2.809c0-0.96-0.178-1.92-0.551-2.809s-0.907-1.689-1.582-2.382c-0.693-0.676-1.493-1.209-2.382-1.582z"></path>
</symbol>
<symbol id="icon-close" viewBox="0 0 32 32">
<path  stroke-linejoin="miter" stroke-linecap="butt" stroke-miterlimit="4" stroke-width="1.7778" d="M1.778 1.778l28.444 28.444"></path>
<path  stroke-linejoin="miter" stroke-linecap="butt" stroke-miterlimit="4" stroke-width="1.7778" d="M1.778 30.222l28.444-28.444"></path>
</symbol>
</defs>
</svg>
