<svg aria-hidden="true" style="position: absolute; width: 0; height: 0; overflow: hidden;" version="1.1" xmlns="http://www.w3.org/2000/svg" xmlns:xlink="http://www.w3.org/1999/xlink">
<defs>
<symbol id="icon-heart" viewBox="0 0 32 32">
<path stroke-linejoin="round" stroke-linecap="butt" stroke-miterlimit="4" stroke-width="2.6667" d="M25.404 4.551c-0.889-0.373-1.849-0.569-2.809-0.569s-1.92 0.196-2.809 0.569c-0.889 0.373-1.707 0.907-2.382 1.582l-1.404 1.422-1.422-1.422c-1.369-1.369-3.236-2.151-5.191-2.151-1.938 0-3.804 0.782-5.191 2.151-1.369 1.387-2.133 3.253-2.133 5.191s0.764 3.804 2.133 5.191l1.422 1.404 10.382 10.382 10.364-10.382 1.422-1.404c0.676-0.693 1.209-1.493 1.582-2.382s0.551-1.849 0.551-2.809c0-0.96-0.178-1.92-0.551-2.809s-0.907-1.689-1.582-2.382c-0.693-0.676-1.493-1.209-2.382-1.582z"></path>
</symbol>
<symbol id="icon-close" viewBox="0 0 32 32">
<path  stroke-linejoin="miter" stroke-linecap="butt" stroke-miterlimit="4" stroke-width="1.7778" d="M1.778 1.778l28.444 28.444"></path>
<path  stroke-linejoin="miter" stroke-linecap="butt" stroke-miterlimit="4" stroke-width="1.7778" d="M1.778 30.222l28.444-28.444"></path>
</symbol>
</defs>
</svg>
